<svg width="201" height="150" viewBox="0 0 201 150" fill="none" xmlns="http://www.w3.org/2000/svg">
<g clip-path="url(#clip0)">
<path d="M135.242 95.1172L147.938 107.812L132.117 123.633C130.945 124.805 130.945 125.977 132.117 127.148L135.438 130.469C136.61 131.641 137.781 131.641 138.953 130.469L154.774 114.648L179.188 139.062L163.367 154.883C162.195 156.055 162.195 157.161 163.367 158.203L166.688 161.719C167.86 162.891 169.031 162.891 170.203 161.719L186.024 145.898L198.328 158.203C199.5 159.375 200.086 160.807 200.086 162.5C200.086 164.193 199.5 165.69 198.328 166.992L167.078 198.242C165.776 199.414 164.279 200 162.586 200C160.893 200 159.461 199.414 158.289 198.242L95.2033 135.156L58.4845 171.875C56.4012 173.958 53.8621 175 50.8673 175C47.8725 175 45.3335 173.958 43.2501 171.875L28.4064 156.836C26.323 154.753 25.2814 152.246 25.2814 149.316C25.2814 146.387 26.323 143.88 28.4064 141.797L65.1251 105.078L1.84387 41.7969C0.671997 40.625 0.0860596 39.1927 0.0860596 37.5C0.0860596 35.8073 0.671997 34.375 1.84387 33.2031L33.0939 1.75781C34.396 0.585938 35.8934 0 37.5861 0C39.2788 0 40.7111 0.585938 41.8829 1.75781L54.1876 14.0625L38.3673 29.8828C37.1954 31.0547 37.1954 32.2266 38.3673 33.3984L41.6876 36.7188C42.8595 37.8906 44.0314 37.8906 45.2033 36.7188L61.0236 20.8984L85.4376 45.3125L69.6173 61.1328C68.4454 62.3047 68.4454 63.4766 69.6173 64.6484L72.9376 67.9688C74.1095 69.1406 75.2814 69.1406 76.4533 67.9688L92.2736 52.1484L104.969 65.0391L166.883 3.125C168.966 1.04167 171.473 0 174.402 0C177.332 0 179.839 1.04167 181.922 3.125L196.961 18.1641C199.044 20.2474 200.086 22.7539 200.086 25.6836C200.086 28.6133 199.044 31.1198 196.961 33.2031L135.242 95.1172ZM12.9767 157.812C13.2371 158.854 13.6928 159.701 14.3439 160.352L39.7345 185.742C40.3855 186.393 41.2319 186.849 42.2736 187.109C41.6225 188.411 41.1017 189.193 40.7111 189.453L6.33606 200C3.21106 200 1.38814 199.74 0.86731 199.219C0.346476 198.698 0.0860596 196.875 0.0860596 193.75L10.6329 159.375C10.8934 159.115 11.6746 158.594 12.9767 157.812Z" fill="white"/>
</g>
<defs>
<clipPath id="clip0">
<rect width="200.195" height="200" fill="white"/>
</clipPath>
</defs>
</svg>
